<?xml version="1.0" encoding="UTF-8" standalone="no"?>
<svg
   version="1.0"
   width="300.000000pt"
   height="300.000000pt"
   viewBox="0 0 300.000000 300.000000"
   preserveAspectRatio="xMidYMid meet"
   id="svg30"
   sodipodi:docname="fffironflowerprototype2.svg"
   inkscape:version="1.4.2 (f4327f4, 2025-05-13)"
   xmlns:inkscape="http://www.inkscape.org/namespaces/inkscape"
   xmlns:sodipodi="http://sodipodi.sourceforge.net/DTD/sodipodi-0.dtd"
   xmlns="http://www.w3.org/2000/svg"
   xmlns:svg="http://www.w3.org/2000/svg">
  <defs
     id="defs30" />
  <sodipodi:namedview
     id="namedview30"
     pagecolor="#ffffff"
     bordercolor="#000000"
     borderopacity="0.25"
     inkscape:showpageshadow="2"
     inkscape:pageopacity="0.0"
     inkscape:pagecheckerboard="0"
     inkscape:deskcolor="#d1d1d1"
     inkscape:document-units="pt"
     inkscape:zoom="1.9325"
     inkscape:cx="197.15395"
     inkscape:cy="203.62225"
     inkscape:window-width="1920"
     inkscape:window-height="991"
     inkscape:window-x="-9"
     inkscape:window-y="-9"
     inkscape:window-maximized="1"
     inkscape:current-layer="svg30" />
  <metadata
     id="metadata1">
Created by potrace 1.10, written by Peter Selinger 2001-2011
</metadata>
  <g
     transform="matrix(0.05,0,0,-0.05,0.42555253,323)"
     fill="#000000"
     stroke="none"
     id="g30"
     style="fill:#000000">
    <path
       d="m 2980,5430 v -470 h 70 70 v 470 470 h -70 -70 z"
       id="path2"
       style="fill:#000000" />
    <path
       d="m 2660,4842 -250,-12 340,-10 c 187,-6 471,-6 630,1 197,8 239,13 130,15 -88,2 -259,7 -380,11 -121,4 -332,2 -470,-5 z"
       id="path3"
       style="fill:#000000" />
    <path
       d="m 2850,4640 c 7,-11 92,-20 190,-20 98,0 183,9 190,20 8,13 -60,20 -190,20 -130,0 -198,-7 -190,-20 z"
       id="path4"
       style="fill:#000000" />
    <path
       d="m 2900,4550 c 0,-20 129,-270 140,-270 11,0 140,250 140,270 0,6 -63,10 -140,10 -77,0 -140,-4 -140,-10 z"
       id="path5"
       style="fill:#000000" />
    <path
       d="m 2800,4173 v -366 l 95,-122 c 52,-67 100,-123 106,-124 6,0 8,136 4,304 l -7,305 -91,185 c -50,102 -95,185 -99,185 -4,0 -8,-165 -8,-367 z"
       id="path6"
       style="fill:#000000" />
    <path
       d="m 3176,4360 -95,-190 -5,-285 c -7,-321 -5,-322 119,-162 l 86,110 -6,358 -5,359 z"
       id="path7"
       style="fill:#000000" />
    <path
       d="m 1300,4452 c 0,-16 21,-54 46,-85 25,-32 157,-230 292,-442 196,-307 257,-388 299,-398 29,-7 132,-32 229,-56 l 177,-44 -12,42 c -7,22 -37,133 -66,245 -52,203 -53,204 -144,256 -50,29 -158,97 -241,151 -82,54 -190,123 -240,153 -49,30 -137,88 -194,130 -112,82 -146,93 -146,48 z"
       id="path8"
       style="fill:#000000" />
    <path
       d="m 4460,4324 c -126,-85 -317,-210 -424,-278 -172,-109 -196,-131 -213,-199 -11,-43 -38,-144 -61,-226 -48,-179 -57,-166 89,-129 65,17 163,41 217,54 94,22 102,30 222,214 68,104 195,298 282,430 233,354 227,361 -112,134 z"
       id="path9"
       style="fill:#000000" />
    <path
       d="m 2170,4381 c 15,-44 38,-134 52,-201 l 24,-122 222,-146 c 315,-207 346,-216 196,-61 -42,43 -115,129 -164,189 -48,61 -103,125 -121,143 -19,19 -77,88 -129,155 -113,144 -117,146 -80,43 z"
       id="path10"
       style="fill:#000000" />
    <path
       d="m 3664,4185 c -112,-140 -231,-286 -265,-324 -81,-92 -48,-100 70,-17 52,36 145,98 207,137 78,49 117,89 128,130 26,92 74,318 68,324 -3,2 -96,-110 -208,-250 z"
       id="path11"
       style="fill:#000000" />
    <path
       d="m 3608,3772 c -133,-90 -172,-115 -376,-247 l -137,-89 62,-62 62,-62 135,42 c 75,23 168,48 207,54 78,13 64,-17 161,360 25,100 28,100 -114,4 z"
       id="path12"
       style="fill:#000000" />
    <path
       d="m 2325,3798 c 83,-365 93,-384 235,-424 311,-87 282,-86 347,-12 56,61 57,67 23,87 -20,12 -94,59 -163,106 -70,47 -133,85 -140,85 -6,0 -67,39 -134,87 -181,127 -181,127 -168,71 z"
       id="path13"
       style="fill:#000000" />
    <path
       d="m 4570,3602 c -77,-20 -165,-42 -195,-50 -52,-12 -123,-106 -364,-482 -49,-77 -54,-81 447,348 59,50 142,117 185,149 65,47 94,77 72,72 -3,-1 -68,-17 -145,-37 z"
       id="path14"
       style="fill:#000000" />
    <path
       d="m 1618,3358 c 170,-136 334,-269 365,-294 81,-67 73,-47 -74,177 -72,110 -135,212 -141,226 -5,15 -97,47 -204,72 -107,24 -207,50 -224,56 -16,6 109,-101 278,-237 z"
       id="path15"
       style="fill:#000000" />
    <path
       d="m 3940,3436 c -71,-21 -152,-46 -180,-53 -51,-14 -87,-88 -111,-230 -6,-34 -21,-97 -33,-139 -21,-70 -19,-80 28,-127 l 50,-50 132,206 c 73,114 140,217 151,229 27,31 123,185 123,198 0,14 -13,11 -160,-34 z"
       id="path16"
       style="fill:#000000" />
    <path
       d="m 2071,3245 c 70,-107 145,-217 165,-245 21,-27 53,-80 72,-116 l 34,-66 68,56 c 40,33 63,68 57,86 -6,17 -28,102 -50,190 -22,88 -48,168 -57,177 -14,15 -363,112 -403,113 -8,0 44,-88 114,-195 z"
       id="path17"
       style="fill:#000000" />
    <path
       d="m 2961,3312 c -81,-108 -94,-110 -324,-44 -200,58 -189,65 -141,-91 79,-255 77,-277 -28,-356 l -92,-69 57,-41 c 31,-22 77,-59 103,-81 l 46,-40 -51,-197 c -28,-109 -51,-200 -51,-203 0,-7 133,29 299,80 l 109,34 41,-57 c 22,-31 59,-77 81,-103 l 40,-46 74,99 74,99 146,-45 c 250,-76 278,-79 256,-20 -11,27 -37,123 -60,213 l -41,164 81,74 c 74,68 101,117 65,119 -8,0 -44,25 -79,55 l -64,54 37,160 c 21,88 48,185 59,215 26,68 29,68 -210,-6 l -198,-60 -80,92 -80,92 z"
       id="path18"
       style="fill:#000000" />
    <path
       d="m 2313,2650 c -7,-17 -98,-162 -204,-322 -106,-160 -189,-294 -186,-297 4,-4 73,15 154,42 136,44 201,61 253,66 50,4 70,43 101,191 18,88 40,174 50,192 13,25 -1,47 -61,95 -90,73 -92,73 -107,33 z"
       id="path19"
       style="fill:#000000" />
    <path
       d="m 3637,2628 -52,-52 37,-123 c 20,-68 48,-163 62,-213 26,-89 28,-90 139,-112 62,-13 142,-33 178,-45 36,-13 69,-19 74,-15 10,10 -46,120 -80,155 -39,41 -275,417 -275,438 0,33 -29,21 -83,-33 z"
       id="path20"
       style="fill:#000000" />
    <path
       d="m 3980,2510 c 0,-73 334,-511 398,-521 62,-11 118,-24 332,-82 49,-13 -11,48 -140,143 -44,33 -195,152 -335,266 -140,114 -255,201 -255,194 z"
       id="path21"
       style="fill:#000000" />
    <path
       d="m 1959,2408 c -27,-32 -422,-366 -559,-472 l -70,-55 120,30 c 66,16 150,35 186,42 37,7 80,32 96,55 183,263 336,532 227,400 z"
       id="path22"
       style="fill:#000000" />
    <path
       d="m 2680,2160 c -71,-21 -155,-43 -185,-49 -41,-9 -55,-24 -55,-59 0,-26 -19,-108 -41,-182 -53,-169 -46,-174 99,-73 65,46 127,83 137,83 10,0 33,16 51,35 17,19 81,62 143,95 121,66 128,78 72,145 -44,53 -53,53 -221,5 z"
       id="path23"
       style="fill:#000000" />
    <path
       d="m 3185,2141 c -25,-32 -45,-65 -45,-74 1,-19 250,-187 278,-187 10,0 22,-7 25,-16 7,-15 289,-204 306,-204 9,0 -40,195 -83,330 -36,112 -53,129 -128,130 -28,0 -104,18 -168,40 -142,49 -130,50 -185,-19 z"
       id="path24"
       style="fill:#000000" />
    <path
       d="m 2250,2040 c -33,-9 -130,-35 -216,-57 -86,-23 -163,-46 -172,-52 -9,-5 -118,-170 -243,-365 -125,-196 -247,-381 -273,-413 -108,-132 -51,-139 131,-17 62,42 181,120 263,173 83,54 201,132 264,174 63,42 120,77 128,77 40,0 148,107 148,146 0,24 18,103 40,174 59,193 58,194 -70,160 z"
       id="path25"
       style="fill:#000000" />
    <path
       d="m 3770,1906 c 25,-86 56,-194 69,-240 20,-75 38,-94 176,-179 85,-53 164,-103 175,-112 11,-8 92,-61 180,-118 88,-57 197,-129 243,-160 159,-108 161,-74 11,150 -53,79 -128,193 -167,253 -38,61 -117,181 -173,267 -57,86 -104,163 -104,171 0,7 -43,25 -95,39 -52,15 -117,34 -145,44 -27,9 -87,22 -133,29 l -83,13 z"
       id="path26"
       style="fill:#000000" />
    <path
       d="m 2947,1852 c -36,-55 -41,-81 -28,-144 9,-43 29,-190 44,-328 l 27,-250 11,380 c 11,419 8,438 -54,342 z"
       id="path27"
       style="fill:#000000" />
    <path
       d="m 3068,1858 c 6,-35 13,-213 15,-395 l 2,-333 27,210 c 68,525 66,486 22,535 -57,63 -81,56 -66,-17 z"
       id="path28"
       style="fill:#000000" />
    <path
       d="m 2555,1668 c -201,-133 -257,-180 -266,-223 -6,-30 -23,-109 -39,-175 -59,-256 -61,-248 32,-128 47,59 90,113 97,118 6,6 51,64 100,129 49,66 150,189 225,274 205,233 194,233 -149,5 z"
       id="path29"
       style="fill:#000000" />
    <path
       d="m 3524,1525 c 103,-118 226,-264 275,-325 49,-60 95,-118 103,-127 8,-10 -1,44 -21,120 -19,75 -41,162 -49,193 -11,47 -429,354 -483,354 -6,0 73,-97 175,-215 z"
       id="path30"
       style="fill:#000000" />
  </g>
</svg>
